# xmcd
#
# Track frame offsets: 
#        150
#        15122
#        34930
#
# Disc length: 726 seconds
#
# Revision: 1
# Processed by: cddbd v1.5.2PL0 Copyright (c) Steve Scherf et al.
# Submitted via: ExactAudioCopyFreeDBPlugin 1.0
#
DISCID=1402d403
DTITLE=Strangelove - Freak [CD2]
DYEAR=1997
DGENRE=Alternative
TTITLE0=Freak
TTITLE1=The Devil You Know
TTITLE2=Bethlehem
EXTD=
EXTT0=
EXTT1=
EXTT2=
PLAYORDER=
